<svg width="17" height="9" viewBox="0 0 17 9" fill="none" xmlns="http://www.w3.org/2000/svg">
<path d="M12.5143 7.09757H4.36849C2.80307 7.09757 1.53516 5.82966 1.53516 4.26424C1.53516 2.69882 2.80307 1.43091 4.36849 1.43091H13.2227C14.2002 1.43091 14.9935 2.22424 14.9935 3.20174C14.9935 4.17924 14.2002 4.97257 13.2227 4.97257H5.78516C5.39557 4.97257 5.07682 4.65382 5.07682 4.26424C5.07682 3.87466 5.39557 3.55591 5.78516 3.55591H12.5143V2.49341H5.78516C4.80766 2.49341 4.01432 3.28674 4.01432 4.26424C4.01432 5.24174 4.80766 6.03507 5.78516 6.03507H13.2227C14.7881 6.03507 16.056 4.76716 16.056 3.20174C16.056 1.63632 14.7881 0.368408 13.2227 0.368408H4.36849C2.21516 0.368408 0.472656 2.11091 0.472656 4.26424C0.472656 6.41757 2.21516 8.16007 4.36849 8.16007H12.5143V7.09757Z" fill="#BDBDBD"/>
</svg>
