<svg width="20" height="20" viewBox="0 0 20 20" fill="none" xmlns="http://www.w3.org/2000/svg">
<path fill-rule="evenodd" clip-rule="evenodd" d="M6 3.99902H4V2.99902H2V5.99902H18V2.99902H16V3.99902H14V2.99902H6V3.99902ZM18 7.99902H2V17.999H18V7.99902ZM14 0.999023H6V-0.000976562H4V0.999023H2C0.89543 0.999023 0 1.89445 0 2.99902L0 17.999C0 19.1036 0.89543 19.999 2 19.999H18C19.1046 19.999 20 19.1036 20 17.999V2.99902C20 1.89445 19.1046 0.999023 18 0.999023H16V-0.000976562H14V0.999023ZM5 11.999V9.99902H7V11.999H5ZM9 11.999H11V9.99902H9V11.999ZM13 11.999V9.99902H15V11.999H13ZM5 13.999V15.999H7V13.999H5ZM11 15.999H9V13.999H11V15.999Z" fill="#D4D5DC"/>
</svg>
