<svg width="20" height="23" viewBox="0 0 20 23" fill="none" xmlns="http://www.w3.org/2000/svg">
<path fill-rule="evenodd" clip-rule="evenodd" d="M17 8.99902C17 4.93985 14.7616 2.12252 11.8654 1.27674C11.7605 1.00539 11.5948 0.753124 11.3695 0.541453C10.5997 -0.181787 9.40027 -0.181787 8.63051 0.541453C8.40572 0.752659 8.24021 1.00428 8.13531 1.27495C5.23535 2.11705 3 4.92822 3 8.99902C3 11.6329 2.46898 13.1088 1.48596 14.1784C1.32161 14.3572 0.876316 14.7668 0.574677 15.0443L0.574652 15.0443L0.574646 15.0443L0.574499 15.0445C0.431865 15.1757 0.321381 15.2773 0.287965 15.311L0 15.603L0 19.0131H6.08798C6.29384 20.0751 6.87009 20.7857 7.9122 21.4216C9.19414 22.2039 10.8059 22.2039 12.0878 21.4216C13.0075 20.8604 13.6241 19.9979 13.8743 19.0131H20V15.603L19.712 15.311C19.6817 15.2802 19.5757 15.1824 19.437 15.0545C19.1363 14.7771 18.6823 14.3582 18.5154 14.176C17.5317 13.1014 17 11.6237 17 8.99902ZM11.7367 19.0131H8.17862C8.3199 19.2759 8.56071 19.4744 8.95402 19.7144C9.59627 20.1063 10.4037 20.1063 11.046 19.7144C11.3434 19.5329 11.5758 19.2928 11.7367 19.0131ZM17.0402 15.5264C17.2506 15.7563 17.7016 16.1765 18 16.451V17.0131H2V16.4514C2.29607 16.1801 2.74843 15.7603 2.95849 15.5317C4.29422 14.0784 5 12.1168 5 8.99902C5 5.21892 7.33277 3.0114 10 3.0114C12.6597 3.0114 15 5.23031 15 8.99902C15 12.1068 15.706 14.069 17.0402 15.5264Z" fill="#4459EA"/>
</svg>
