<svg width="24" height="24" viewBox="0 0 24 24" fill="none" xmlns="http://www.w3.org/2000/svg">
<path fill-rule="evenodd" clip-rule="evenodd" d="M10.001 17.999C5.5827 17.999 2.00098 14.4173 2.00098 9.99902C2.00098 5.58075 5.5827 1.99902 10.001 1.99902C14.4193 1.99902 18.001 5.58075 18.001 9.99902C18.001 12.1229 17.1733 14.0535 15.823 15.4858L20.001 19.6638L18.6658 20.999L14.3691 16.7023C13.1132 17.5224 11.6128 17.999 10.001 17.999ZM16.001 9.99902C16.001 13.3127 13.3147 15.999 10.001 15.999C6.68727 15.999 4.00098 13.3127 4.00098 9.99902C4.00098 6.68532 6.68727 3.99902 10.001 3.99902C13.3147 3.99902 16.001 6.68532 16.001 9.99902Z" fill="#4459EA"/>
</svg>
